Coordinates
version=1
nRows=26
nColumns=24
inDegrees=yes

Units are S.I. units (second, meters, Newtons, ...)
Angles are in degrees.

endheader
time	pelvis_tilt	pelvis_list	pelvis_rotation	pelvis_tx	pelvis_ty	pelvis_tz	hip_flexion_r	hip_adduction_r	hip_rotation_r	knee_angle_r	ankle_angle_r	subtalar_angle_r	mtp_angle_r	hip_flexion_l	hip_adduction_l	hip_rotation_l	knee_angle_l	ankle_angle_l	subtalar_angle_l	mtp_angle_l	lumbar_extension	lumbar_bending	lumbar_rotation
      2.71500000	    -12.14675867	      9.16747582	     -4.54210543	     -2.26004063	     -0.03618303	     -0.21661001	     15.05268154	    -15.23881331	     -5.74922933	    -58.69339064	    -30.85568589	    -16.51169593	      9.84790062	     31.86784841	      9.05918528	     -1.88319027	    -22.72137032	     -2.92862819	    -15.37263092	    -11.62054813	      9.52093271	     -9.49883373	      5.11331404
      2.72000000	    -12.18812232	      9.05530448	     -4.37980290	     -2.25283490	     -0.03496762	     -0.21737212	     16.16743113	    -14.98867193	     -5.52032069	    -59.85171223	    -29.61904781	    -16.82245168	     10.28329427	     31.29906028	      9.14617066	     -1.66673584	    -22.51443670	     -2.52643735	    -15.30531680	    -11.42563204	      9.46672769	     -9.39553680	      4.85230394
      2.72500000	    -12.22914744	      8.89614650	     -4.24900879	     -2.24562835	     -0.03367252	     -0.21809563	     17.26317426	    -14.67383724	     -5.30451424	    -60.87715160	    -28.38754752	    -17.03423895	     10.78016428	     30.70124636	      9.17097314	     -1.40948128	    -22.27031305	     -2.13202591	    -15.24986762	    -11.24683924	      9.41995472	     -9.22792778	      4.62643728
      2.73000000	    -12.30972344	      8.75180395	     -4.18571037	     -2.23852234	     -0.03240054	     -0.21881607	     18.42159446	    -14.35896912	     -5.02795419	    -61.76575930	    -27.41029224	    -17.26955687	     12.60448874	     30.14303260	      9.17673676	     -1.22990734	    -21.97392013	     -1.95548700	    -15.41375175	    -10.86363858	      9.41635919	     -9.04515658	      4.49389835
      2.73500000	    -12.25826534	      8.50249479	     -4.04491063	     -2.23128794	     -0.03088887	     -0.21952682	     19.33356397	    -13.96863504	     -4.95444409	    -62.51239607	    -26.24125446	    -17.30507118	     13.02819515	     29.40464460	      9.11713715	     -0.91609052	    -21.68687011	     -1.49570574	    -15.23798037	    -10.71195730	      9.26947389	     -8.79169225	      4.21183238
      2.74000000	    -12.26567266	      8.33808214	     -3.95670203	     -2.22416090	     -0.02949283	     -0.22020076	     20.35717438	    -13.66109569	     -4.80673124	    -63.21511398	    -25.00122908	    -17.13424364	     13.83749778	     28.74692211	      9.10400909	     -0.71949395	    -21.37278688	     -1.20993732	    -15.19421295	    -10.61974197	      9.19234205	     -8.60557698	      4.01917098
      2.74500000	    -12.23440035	      8.09905309	     -3.87777098	     -2.21700804	     -0.02800060	     -0.22087836	     21.29244483	    -13.27110783	     -4.70110186	    -63.76901048	    -23.89984687	    -16.94176904	     14.70572926	     28.02326429	      9.02021011	     -0.44689203	    -21.03911630	     -0.89164389	    -15.15830460	    -10.55425906	      9.07738143	     -8.33428873	      3.81876924
      2.75000000	    -12.18694501	      7.85942911	     -3.80602484	     -2.20984696	     -0.02650081	     -0.22155305	     22.18963333	    -12.88746616	     -4.62085460	    -64.21568172	    -22.85836134	    -16.70366939	     15.67900562	     27.27206554	      8.93256371	     -0.16927234	    -20.68319967	     -0.59516481	    -15.15198857	    -10.53602416	      8.95335327	     -8.05903125	      3.62846752
      2.75500000	    -12.10820269	      7.64329406	     -3.79665832	     -2.20270782	     -0.02496518	     -0.22223696	     23.04080312	    -12.51520748	     -4.47302742	    -64.49580838	    -22.14577620	    -16.59683720	     18.24763472	     26.47611260	      8.85920030	      0.06808182	    -20.28054311	     -0.40965951	    -15.36257247	    -10.81170162	      8.80624712	     -7.78176079	      3.51761900
      2.76000000	    -12.05546113	      7.31178847	     -3.64947587	     -2.19559579	     -0.02349126	     -0.22291782	     23.84683767	    -12.06045775	     -4.56086561	    -64.73496264	    -21.16177112	    -16.35595134	     18.78605941	     25.73095245	      8.68833303	      0.42053641	    -19.96957378	     -0.01514871	    -15.18058592	    -10.76667227	      8.65672772	     -7.43036346	      3.23419210
      2.76500000	    -11.94793971	      7.08251902	     -3.60509288	     -2.18848230	     -0.02199305	     -0.22358774	     24.61927556	    -11.69405795	     -4.50627787	    -64.87506640	    -20.22768646	    -16.01297153	     20.23832750	     24.89516235	      8.60780759	      0.72483314	    -19.55117187	      0.15653504	    -15.36564100	    -11.06376528	      8.47921044	     -7.15346486	      3.08078378
      2.77000000	    -11.91513186	      6.70590844	     -3.46135190	     -2.18141438	     -0.02058169	     -0.22423966	     25.39889471	    -11.18265588	     -4.63124489	    -64.91906789	    -19.31744034	    -15.76287543	     20.64996590	     24.17207053	      8.37375224	      1.06331649	    -19.22622326	      0.49756942	    -15.25814208	    -11.03619476	      8.35333204	     -6.74769899	      2.77677585
      2.77500000	    -11.83671320	      6.40854284	     -3.27936469	     -2.17429693	     -0.01918805	     -0.22495279	     26.09518804	    -10.80186051	     -4.78681685	    -64.88127445	    -18.21954697	    -15.32243308	     21.28675869	     23.38598454	      8.23923756	      1.41130677	    -18.85381200	      0.71867225	    -15.21994259	    -11.09028929	      8.19548568	     -6.43675669	      2.49841273
      2.78000000	    -11.73230426	      6.12845742	     -3.12369000	     -2.16722654	     -0.01781756	     -0.22576545	     26.73977202	    -10.44123970	     -4.88330373	    -64.64245857	    -17.71364128	    -15.26302637	     24.48281357	     22.55478975	      8.13518396	      1.86513070	    -18.46139510	      1.09341436	    -15.25064273	    -11.94795598	      8.00819223	     -6.12026300	      2.23927790
      2.78500000	    -11.68639390	      5.79906809	     -2.94945590	     -2.16021187	     -0.01656159	     -0.22642078	     27.44166727	    -10.01042522	     -5.04975552	    -64.44127089	    -16.70581067	    -14.86549026	     24.80959894	     21.81686444	      7.93634462	      2.17224557	    -18.09466685	      1.33832235	    -15.18048399	    -11.94219937	      7.87445494	     -5.77060296	      1.94337479
      2.79000000	    -11.59381262	      5.51321996	     -2.74215501	     -2.15319528	     -0.01536162	     -0.22717488	     28.07052084	     -9.66618650	     -5.24452628	    -64.16451945	    -15.71354678	    -14.44828474	     25.32231930	     21.01111805	      7.80253285	      2.56323089	    -17.69154580	      1.57654746	    -15.16553020	    -11.99079605	      7.69428221	     -5.46781754	      1.64177916
      2.79500000	    -11.51693016	      5.18847487	     -2.52490913	     -2.14617857	     -0.01416958	     -0.22796994	     28.65910211	     -9.28781586	     -5.45329247	    -63.69871332	    -15.07401137	    -14.28345841	     27.27733906	     20.22432275	      7.62467174	      2.93054474	    -17.29304500	      1.88599117	    -15.13072797	    -12.49359601	      7.52809078	     -5.11745939	      1.30749053
      2.80000000	    -11.48231323	      4.88086047	     -2.29919717	     -2.13920821	     -0.01314965	     -0.22868830	     29.30354579	     -8.92665814	     -5.68131565	    -63.25831881	    -14.17453335	    -13.90814245	     27.54854327	     19.50737485	      7.43408663	      3.19039712	    -16.91384266	      2.15956599	    -14.98888499	    -12.44959627	      7.40962701	     -4.79087951	      0.97754684
      2.80500000	    -11.43639608	      4.57767874	     -2.07095579	     -2.13225706	     -0.01218267	     -0.22941786	     29.91090637	     -8.57888257	     -5.91085796	    -62.73042422	    -13.34736295	    -13.55880634	     27.84777031	     18.77359015	      7.24254485	      3.46046468	    -16.51722588	      2.41349665	    -14.86632752	    -12.40802106	      7.27456301	     -4.46709264	      0.62975479
      2.81000000	    -11.39269192	      4.28679372	     -1.83618520	     -2.12531955	     -0.01129994	     -0.23013499	     30.49908695	     -8.25500435	     -6.14599709	    -62.12659868	    -12.58710133	    -13.22656479	     28.15231360	     18.04576058	      7.05348568	      3.70621461	    -16.11724150	      2.67382563	    -14.71605950	    -12.35153155	      7.14102595	     -4.15856791	      0.26937094
      2.81500000	    -11.35470306	      4.01144527	     -1.60186848	     -2.11838377	     -0.01051469	     -0.23085603	     31.07460803	     -7.95935666	     -6.38470949	    -61.45129132	    -11.90892880	    -12.92666509	     28.44170614	     17.32826641	      6.87066929	      3.92255984	    -15.71638176	      2.94419661	    -14.54403459	    -12.27621571	      7.01689892	     -3.86060986	     -0.07715006
      2.82000000	    -11.32355056	      3.75090345	     -1.37050197	     -2.11145150	     -0.00982989	     -0.23156459	     31.63937897	     -7.68724331	     -6.62060231	    -60.70870270	    -11.32022089	    -12.65893614	     28.70148539	     16.62488802	      6.69233134	      4.11365776	    -15.32074967	      3.22008246	    -14.34946226	    -12.18000564	      6.90034484	     -3.57804564	     -0.41951926
      2.82500000	    -11.30408618	      3.50357211	     -1.14865288	     -2.10452722	     -0.00925058	     -0.23225165	     32.19960547	     -7.43094852	     -6.84579482	    -59.89933876	    -10.83212374	    -12.42402275	     28.91416601	     15.94211228	      6.51626644	      4.28357509	    -14.93285678	      3.49717668	    -14.14299475	    -12.06605218	      6.79812560	     -3.30372442	     -0.75262891
      2.83000000	    -11.27659852	      3.27319220	     -0.92629356	     -2.09761915	     -0.00877820	     -0.23292738	     32.73016353	     -7.20435449	     -7.07887825	    -59.02641130	    -10.41909024	    -12.23920525	     29.10489477	     15.26352625	      6.35172175	      4.43683730	    -14.56270287	      3.78900823	    -13.92671484	    -11.92053789	      6.68574793	     -3.04733234	     -1.07969083
      2.83500000	    -11.26865874	      3.05768791	     -0.71951886	     -2.09071034	     -0.00841103	     -0.23356393	     33.26667734	     -6.98817273	     -7.28667686	    -58.09306935	    -10.12102092	    -12.07657104	     29.23970916	     14.61273019	      6.19093337	      4.57669090	    -14.19947202	      4.06729409	    -13.71557130	    -11.76589550	      6.59616409	     -2.80275084	     -1.40450922
      2.84000000	    -11.27182762	      2.85820410	     -0.52010565	     -2.08380669	     -0.00814875	     -0.23417813	     33.79665802	     -6.79179032	     -7.48347181	    -57.10103510	     -9.90868184	    -11.93166766	     29.32174068	     13.98303306	      6.03985892	      4.71183209	    -13.84889468	      4.33529604	    -13.51042523	    -11.60913316	      6.51908839	     -2.57064724	     -1.71888945
